<?xml version="1.0" encoding="UTF-8" standalone="no"?>
<!-- Created with Inkscape (http://www.inkscape.org/) -->

<svg
   width="32.000004"
   height="31.999973"
   viewBox="0 0 8.4666675 8.4666596"
   version="1.1"
   id="svg3463"
   inkscape:version="1.2.2 (b0a8486541, 2022-12-01)"
   sodipodi:docname="pdp10-icons.svg"
   xml:space="preserve"
   xmlns:inkscape="http://www.inkscape.org/namespaces/inkscape"
   xmlns:sodipodi="http://sodipodi.sourceforge.net/DTD/sodipodi-0.dtd"
   xmlns="http://www.w3.org/2000/svg"
   xmlns:svg="http://www.w3.org/2000/svg"><sodipodi:namedview
     id="namedview3465"
     pagecolor="#ffffff"
     bordercolor="#000000"
     borderopacity="0.25"
     inkscape:showpageshadow="2"
     inkscape:pageopacity="0.0"
     inkscape:pagecheckerboard="0"
     inkscape:deskcolor="#d1d1d1"
     inkscape:document-units="px"
     showgrid="true"
     inkscape:zoom="2.8079686"
     inkscape:cx="313.74995"
     inkscape:cy="643.34765"
     inkscape:window-width="1920"
     inkscape:window-height="1016"
     inkscape:window-x="0"
     inkscape:window-y="0"
     inkscape:window-maximized="1"
     inkscape:current-layer="layer1"><inkscape:grid
       type="xygrid"
       id="grid1129"
       empspacing="1"
       snapvisiblegridlinesonly="false" /></sodipodi:namedview><defs
     id="defs3460"><linearGradient
       id="linearGradient3216"
       inkscape:swatch="solid"><stop
         style="stop-color:#000000;stop-opacity:1;"
         offset="0"
         id="stop3214" /></linearGradient></defs><g
     inkscape:label="Layer 1"
     inkscape:groupmode="layer"
     id="layer1"
     transform="translate(-99.22046,-157.68896)"><rect
       style="display:inline;fill:#013d60;fill-opacity:1;stroke:none;stroke-width:0.00241585;stroke-miterlimit:4;stroke-dasharray:none;stroke-opacity:1"
       id="rect6242-6-36-9-1"
       width="8.4666662"
       height="8.4666662"
       x="99.220459"
       y="157.68896"
       ry="0.18205146"
       inkscape:export-xdpi="100.38"
       inkscape:export-ydpi="100.38"
       inkscape:export-filename="../../../../../icons/pdp11.png" /><path
       inkscape:connector-curvature="0"
       id="path5441-3-9-0-2"
       d="m 99.494425,160.04287 c 0,-0.0213 0,-1.88772 0,-1.88772 l 1.690565,-0.009 0.10377,0.005 0.0854,0.0133 0.0722,0.02 0.0631,0.0293 0.0447,0.0293 0.0381,0.036 0.0315,0.0347 0.0263,0.0373 0.0184,0.032 0.0171,0.0413 0.0197,0.0627 0.0131,0.0493 0.0118,0.0693 0.007,0.0653 0.008,0.1 0.003,0.0547 -0.003,0.0746 -0.004,0.0787 -0.008,0.0973 -0.0131,0.0946 -0.0184,0.0693 -0.0328,0.0813 -0.0263,0.04 -0.0552,0.0653 -0.0434,0.036 -0.0433,0.028 -0.0696,0.0307 -0.0801,0.0213 -0.0762,0.012 -0.0906,0.0107 -0.0972,0.004 -0.97204,0.001 -0.0189,8.6e-4 -0.0139,0.002 -0.007,0.006 -0.004,0.009 -10e-4,0.025 0.003,0.39686 -0.004,0.016 -0.008,0.0132 -0.0177,0.002 -0.04458,0.002 -0.404045,0.003 -0.09103,9.4e-4 z"
       style="fill:#d20031;fill-opacity:1;fill-rule:evenodd;stroke:none;stroke-width:0.00600182;stroke-linecap:butt;stroke-linejoin:miter;stroke-miterlimit:4;stroke-dasharray:none;stroke-opacity:1" /><path
       inkscape:connector-curvature="0"
       id="path5443-5-3-2-9"
       d="m 100.07691,158.65927 0.007,-0.0189 0.0167,-0.0113 0.0223,-0.007 0.84621,-0.001 0.0512,0.001 0.0525,0.0133 0.0302,0.0173 0.021,0.0187 0.0184,0.024 0.0158,0.0427 0.0105,0.0387 v 0.052 l -10e-4,0.048 -0.001,0.0533 -0.007,0.0467 -0.0158,0.0307 -0.025,0.0347 -0.0355,0.0227 -0.0512,0.02 -0.0486,0.005 -0.87615,0.004 -0.0184,-0.003 -0.0144,-0.0147 v -0.084 z"
       style="fill:#013d60;fill-opacity:1;fill-rule:evenodd;stroke:none;stroke-width:0.00600182;stroke-linecap:butt;stroke-linejoin:miter;stroke-miterlimit:4;stroke-dasharray:none;stroke-opacity:1" /><path
       inkscape:connector-curvature="0"
       id="path5441-2-2-0-7-3"
       d="m 105.11502,160.04278 c 0,-0.0213 0,-1.88772 0,-1.88772 l 1.69057,-0.009 0.10377,0.005 0.0854,0.0133 0.0723,0.02 0.063,0.0293 0.0447,0.0293 0.0381,0.036 0.0315,0.0347 0.0263,0.0373 0.0184,0.032 0.0171,0.0413 0.0197,0.0627 0.0131,0.0493 0.0118,0.0693 0.007,0.0653 0.008,0.1 0.003,0.0547 -0.003,0.0747 -0.004,0.0786 -0.008,0.0973 -0.0131,0.0947 -0.0184,0.0693 -0.0328,0.0813 -0.0263,0.04 -0.0552,0.0653 -0.0434,0.036 -0.0434,0.028 -0.0696,0.0307 -0.0801,0.0213 -0.0762,0.012 -0.0906,0.0107 -0.0972,0.004 -0.97204,0.001 -0.0189,8.5e-4 -0.0139,0.002 -0.007,0.006 -0.004,0.009 -0.001,0.025 0.003,0.39686 -0.004,0.016 -0.008,0.0132 -0.0177,0.002 -0.0446,0.002 -0.40405,0.003 -0.091,9.4e-4 z"
       style="fill:#d20031;fill-opacity:1;fill-rule:evenodd;stroke:none;stroke-width:0.00600182;stroke-linecap:butt;stroke-linejoin:miter;stroke-miterlimit:4;stroke-dasharray:none;stroke-opacity:1" /><path
       inkscape:connector-curvature="0"
       id="path5443-9-9-6-5-90"
       d="m 105.6975,158.65919 0.007,-0.0189 0.0167,-0.0113 0.0223,-0.008 0.84622,-0.001 0.0512,0.001 0.0525,0.0133 0.0302,0.0173 0.021,0.0187 0.0184,0.024 0.0158,0.0427 0.0105,0.0387 v 0.052 l -0.001,0.048 -0.001,0.0533 -0.007,0.0467 -0.0158,0.0307 -0.025,0.0347 -0.0355,0.0227 -0.0512,0.02 -0.0486,0.005 -0.87615,0.004 -0.0184,-0.003 -0.0145,-0.0147 v -0.084 z"
       style="fill:#013d60;fill-opacity:1;fill-rule:evenodd;stroke:none;stroke-width:0.00600182;stroke-linecap:butt;stroke-linejoin:miter;stroke-miterlimit:4;stroke-dasharray:none;stroke-opacity:1" /><path
       style="display:inline;fill:#d20031;fill-opacity:1;fill-rule:evenodd;stroke:none;stroke-width:0.00600182;stroke-linecap:butt;stroke-linejoin:miter;stroke-miterlimit:4;stroke-dasharray:none;stroke-opacity:1"
       d="m 102.13471,158.2271 v -0.0826 l 0.008,-0.0134 0.021,-0.0107 h 0.0315 1.73392 l 0.0867,0.003 0.0893,0.005 0.0657,0.016 0.0709,0.0187 0.0657,0.032 0.0473,0.0213 0.0473,0.0347 0.0368,0.036 0.0315,0.0373 0.0302,0.04 0.0289,0.0507 0.0276,0.0706 0.0237,0.0907 0.021,0.10798 0.0105,0.092 0.004,0.10532 0.005,0.13864 -0.003,0.15732 -0.005,0.13198 -0.004,0.0853 -0.0118,0.11733 -0.0184,0.0919 -0.0302,0.1 -0.0394,0.0706 -0.0512,0.0613 -0.0578,0.056 -0.0749,0.04 -0.0906,0.0387 -0.0788,0.0227 -0.0775,0.016 -0.0749,0.005 h -1.8285 l -0.0197,-0.003 -0.008,-0.008 -0.004,-0.0187 -0.004,-0.0266 -0.003,-0.028 z"
       id="path5508-1-2-9-8"
       inkscape:connector-curvature="0"
       inkscape:export-xdpi="100.38"
       inkscape:export-ydpi="100.38" /><path
       style="display:inline;fill:#013d60;fill-opacity:1;fill-rule:evenodd;stroke:none;stroke-width:0.00600182;stroke-linecap:butt;stroke-linejoin:miter;stroke-miterlimit:4;stroke-dasharray:none;stroke-opacity:1"
       d="m 102.70366,158.64039 v -0.0246 l 0.007,-0.0113 0.0204,-0.01 0.0502,-0.002 h 0.47556 0.41055 l 0.0947,0.008 0.0669,0.006 0.0557,0.0151 0.0502,0.0226 0.039,0.0302 0.0242,0.0453 0.0204,0.0566 0.0111,0.0566 0.013,0.12821 -0.002,0.17344 -0.006,0.13951 -0.0186,0.0867 -0.0149,0.0472 -0.0353,0.0509 -0.0483,0.0415 -0.0464,0.0226 -0.0427,0.0151 -0.11332,0.004 -0.61117,0.004 -0.35668,-0.004 -0.0223,-0.008 -0.0186,-0.0189 -0.006,-0.049 z"
       id="path5510-2-6-2-8"
       inkscape:connector-curvature="0"
       inkscape:export-xdpi="100.38"
       inkscape:export-ydpi="100.38" /><path
       style="display:inline;fill:#d20031;fill-opacity:1;fill-rule:evenodd;stroke:none;stroke-width:0.0127301;stroke-linecap:butt;stroke-linejoin:miter;stroke-miterlimit:4;stroke-dasharray:none;stroke-opacity:1"
       d="m 101.77306,162.96337 -0.4323,-0.84514 4.7e-4,-0.0266 0.005,-0.0212 0.0111,-0.0118 0.005,-0.005 0.0135,-0.0165 0.016,-0.0165 1.38543,-1.22077 0.0296,-0.0118 0.0394,-0.009 0.0222,-0.002 h 1.17588 l 0.0147,0.0118 0.0148,0.0118 0.005,0.0165 v 4.48366 l -0.001,0.0165 -0.01,0.0141 -0.0142,0.005 -0.009,0.005 h -0.96881 l -0.0148,-0.007 -0.0135,-0.0212 -0.009,-0.0247 -0.002,-0.0212 v -3.28636 l -0.003,-0.0339 -0.0105,-0.0212 -0.0175,-0.009 -0.0209,0.002 -0.0262,0.025 -1.12781,1.03045 -0.0192,0.007 -0.0244,-0.009 z"
       id="path5514-0-8-7-0"
       inkscape:connector-curvature="0"
       inkscape:export-xdpi="100.38"
       inkscape:export-ydpi="100.38" /><path
       style="display:inline;fill:#d20031;fill-opacity:1;fill-rule:evenodd;stroke:none;stroke-width:0.0127301;stroke-linecap:butt;stroke-linejoin:miter;stroke-miterlimit:4;stroke-dasharray:none;stroke-opacity:1"
       d="m 105.08964,162.95597 -0.4323,-0.84514 4.7e-4,-0.0266 0.005,-0.0212 0.0111,-0.0118 0.005,-0.005 0.0135,-0.0165 0.016,-0.0165 1.38543,-1.22077 0.0296,-0.0118 0.0394,-0.009 0.0222,-0.002 h 1.17588 l 0.0147,0.0118 0.0148,0.0118 0.005,0.0165 v 4.48366 l -0.001,0.0165 -0.01,0.0141 -0.0142,0.005 -0.009,0.005 h -0.96881 l -0.0148,-0.007 -0.0135,-0.0212 -0.009,-0.0247 -0.002,-0.0212 v -3.28636 l -0.003,-0.0339 -0.0105,-0.0212 -0.0175,-0.009 -0.0209,0.002 -0.0262,0.025 -1.12781,1.03045 -0.0192,0.007 -0.0244,-0.009 z"
       id="path5514-0-8-7-0-6"
       inkscape:connector-curvature="0"
       inkscape:export-xdpi="100.38"
       inkscape:export-ydpi="100.38" /><text
       xml:space="preserve"
       style="font-style:normal;font-variant:normal;font-weight:normal;font-stretch:normal;font-size:2.55764px;font-family:'Arial Black';-inkscape-font-specification:'Arial Black, ';fill:#d20031;fill-opacity:0.99;stroke:none;stroke-width:0.264583;stroke-dasharray:none;stroke-opacity:1"
       x="99.374458"
       y="165.37527"
       id="text1333-6-0-7-3"><tspan
         sodipodi:role="line"
         id="tspan1331-1-3-44-8"
         style="font-style:normal;font-variant:normal;font-weight:normal;font-stretch:normal;font-family:Arial;-inkscape-font-specification:Arial;fill:#d20031;fill-opacity:0.99;stroke:none;stroke-width:0.264583;stroke-dasharray:none;stroke-opacity:1"
         x="99.374458"
         y="165.37527">TV</tspan></text></g></svg>
