<?xml version="1.0" encoding="UTF-8" standalone="no"?>
<!-- Created with Inkscape (http://www.inkscape.org/) -->

<svg
   width="32.000004"
   height="31.999973"
   viewBox="0 0 8.4666675 8.4666596"
   version="1.1"
   id="svg3463"
   inkscape:version="1.2.2 (b0a8486541, 2022-12-01)"
   sodipodi:docname="pdp10-icons.svg"
   xml:space="preserve"
   xmlns:inkscape="http://www.inkscape.org/namespaces/inkscape"
   xmlns:sodipodi="http://sodipodi.sourceforge.net/DTD/sodipodi-0.dtd"
   xmlns="http://www.w3.org/2000/svg"
   xmlns:svg="http://www.w3.org/2000/svg"><sodipodi:namedview
     id="namedview3465"
     pagecolor="#ffffff"
     bordercolor="#000000"
     borderopacity="0.25"
     inkscape:showpageshadow="2"
     inkscape:pageopacity="0.0"
     inkscape:pagecheckerboard="0"
     inkscape:deskcolor="#d1d1d1"
     inkscape:document-units="px"
     showgrid="true"
     inkscape:zoom="2.8079686"
     inkscape:cx="300.21703"
     inkscape:cy="643.70378"
     inkscape:window-width="1920"
     inkscape:window-height="1016"
     inkscape:window-x="0"
     inkscape:window-y="0"
     inkscape:window-maximized="1"
     inkscape:current-layer="layer1"><inkscape:grid
       type="xygrid"
       id="grid1129"
       empspacing="1"
       snapvisiblegridlinesonly="false" /></sodipodi:namedview><defs
     id="defs3460"><linearGradient
       id="linearGradient3216"
       inkscape:swatch="solid"><stop
         style="stop-color:#000000;stop-opacity:1;"
         offset="0"
         id="stop3214" /></linearGradient></defs><g
     inkscape:label="Layer 1"
     inkscape:groupmode="layer"
     id="layer1"
     transform="translate(-91.332597,-188.23147)"><rect
       style="display:inline;fill:#013d60;fill-opacity:1;stroke:none;stroke-width:0.00241585;stroke-miterlimit:4;stroke-dasharray:none;stroke-opacity:1"
       id="rect6242-6-36-9-2-7-7-2"
       width="8.4666662"
       height="8.4666662"
       x="91.332596"
       y="188.23148"
       ry="0.18205146"
       inkscape:export-xdpi="100.38"
       inkscape:export-ydpi="100.38"
       inkscape:export-filename="../../../../../icons-svg/con.svg" /><path
       inkscape:connector-curvature="0"
       id="path5441-3-9-0-9-6-6-0"
       d="m 91.606543,190.64026 c 0,-0.0213 0,-1.88772 0,-1.88772 l 1.69057,-0.009 0.10377,0.005 0.0854,0.0133 0.0722,0.02 0.0631,0.0293 0.0447,0.0293 0.0381,0.036 0.0315,0.0347 0.0263,0.0373 0.0184,0.032 0.0171,0.0413 0.0197,0.0627 0.0131,0.0493 0.0118,0.0693 0.007,0.0653 0.008,0.1 0.003,0.0547 -0.003,0.0746 -0.004,0.0787 -0.008,0.0973 -0.0131,0.0946 -0.0184,0.0693 -0.0328,0.0813 -0.0263,0.04 -0.0552,0.0653 -0.0433,0.036 -0.0434,0.028 -0.0696,0.0307 -0.0801,0.0213 -0.0762,0.012 -0.0906,0.0107 -0.0972,0.004 -0.97204,0.001 -0.0189,8.6e-4 -0.0139,0.002 -0.007,0.006 -0.004,0.009 -0.001,0.025 0.003,0.39686 -0.004,0.016 -0.008,0.0132 -0.0177,0.002 -0.0446,0.002 -0.40405,0.003 -0.091,9.4e-4 z"
       style="fill:#0040dc;fill-opacity:1;fill-rule:evenodd;stroke:none;stroke-width:0.00600182;stroke-linecap:butt;stroke-linejoin:miter;stroke-miterlimit:4;stroke-dasharray:none;stroke-opacity:1" /><path
       inkscape:connector-curvature="0"
       id="path5443-5-3-2-3-5-4-2"
       d="m 92.189033,189.25666 0.007,-0.0189 0.0167,-0.0113 0.0223,-0.007 0.84621,-0.001 0.0512,0.001 0.0525,0.0133 0.0302,0.0173 0.021,0.0187 0.0184,0.024 0.0158,0.0427 0.0105,0.0387 v 0.052 l -0.001,0.048 -0.001,0.0533 -0.007,0.0467 -0.0158,0.0307 -0.025,0.0347 -0.0355,0.0227 -0.0512,0.02 -0.0486,0.005 -0.87615,0.004 -0.0184,-0.003 -0.0144,-0.0147 v -0.084 z"
       style="fill:#013d60;fill-opacity:1;fill-rule:evenodd;stroke:none;stroke-width:0.00600182;stroke-linecap:butt;stroke-linejoin:miter;stroke-miterlimit:4;stroke-dasharray:none;stroke-opacity:1" /><path
       inkscape:connector-curvature="0"
       id="path5441-2-2-0-7-1-69-3-3"
       d="m 97.227143,190.64017 c 0,-0.0213 0,-1.88772 0,-1.88772 l 1.69057,-0.009 0.10377,0.005 0.0854,0.0133 0.0722,0.02 0.0631,0.0293 0.0447,0.0293 0.0381,0.036 0.0315,0.0347 0.0263,0.0373 0.0184,0.032 0.0171,0.0413 0.0197,0.0627 0.0131,0.0493 0.0118,0.0693 0.007,0.0653 0.008,0.1 0.003,0.0547 -0.003,0.0747 -0.004,0.0786 -0.008,0.0973 -0.0131,0.0947 -0.0184,0.0693 -0.0328,0.0813 -0.0263,0.04 -0.0552,0.0653 -0.0434,0.036 -0.0434,0.028 -0.0696,0.0307 -0.0801,0.0213 -0.0762,0.012 -0.0906,0.0107 -0.0972,0.004 -0.97204,10e-4 -0.019,8.5e-4 -0.0139,0.002 -0.007,0.006 -0.004,0.009 -10e-4,0.025 0.003,0.39686 -0.004,0.016 -0.008,0.0132 -0.0177,0.002 -0.0446,0.002 -0.40405,0.003 -0.091,9.4e-4 z"
       style="fill:#0040dc;fill-opacity:1;fill-rule:evenodd;stroke:none;stroke-width:0.00600182;stroke-linecap:butt;stroke-linejoin:miter;stroke-miterlimit:4;stroke-dasharray:none;stroke-opacity:1" /><path
       inkscape:connector-curvature="0"
       id="path5443-9-9-6-5-9-37-0-7"
       d="m 97.809623,189.25658 0.007,-0.0189 0.0167,-0.0113 0.0223,-0.008 0.84622,-0.001 0.0512,0.001 0.0525,0.0133 0.0302,0.0173 0.021,0.0187 0.0184,0.024 0.0158,0.0427 0.0105,0.0387 v 0.052 l -0.001,0.048 -10e-4,0.0533 -0.007,0.0467 -0.0158,0.0307 -0.025,0.0347 -0.0355,0.0227 -0.0512,0.02 -0.0486,0.005 -0.87616,0.004 -0.0184,-0.003 -0.0145,-0.0147 v -0.084 z"
       style="fill:#013d60;fill-opacity:1;fill-rule:evenodd;stroke:none;stroke-width:0.00600182;stroke-linecap:butt;stroke-linejoin:miter;stroke-miterlimit:4;stroke-dasharray:none;stroke-opacity:1" /><path
       style="display:inline;fill:#0040dc;fill-opacity:1;fill-rule:evenodd;stroke:none;stroke-width:0.00600182;stroke-linecap:butt;stroke-linejoin:miter;stroke-miterlimit:4;stroke-dasharray:none;stroke-opacity:1"
       d="m 94.246833,188.82449 v -0.0826 l 0.008,-0.0134 0.021,-0.0107 h 0.0315 1.73392 l 0.0867,0.003 0.0893,0.005 0.0657,0.016 0.0709,0.0187 0.0657,0.032 0.0473,0.0213 0.0473,0.0347 0.0368,0.036 0.0315,0.0373 0.0302,0.04 0.0289,0.0507 0.0276,0.0706 0.0237,0.0907 0.021,0.10798 0.0105,0.092 0.004,0.10532 0.005,0.13864 -0.003,0.15732 -0.005,0.13198 -0.004,0.0853 -0.0118,0.11733 -0.0184,0.0919 -0.0302,0.1 -0.0394,0.0706 -0.0512,0.0613 -0.0578,0.056 -0.0749,0.04 -0.0906,0.0387 -0.0788,0.0227 -0.0775,0.016 -0.0749,0.005 h -1.8285 l -0.0197,-0.003 -0.008,-0.008 -0.004,-0.0187 -0.004,-0.0266 -0.003,-0.028 z"
       id="path5508-1-2-9-4-4-3-5"
       inkscape:connector-curvature="0"
       inkscape:export-xdpi="100.38"
       inkscape:export-ydpi="100.38" /><path
       style="display:inline;fill:#013d60;fill-opacity:1;fill-rule:evenodd;stroke:none;stroke-width:0.00600182;stroke-linecap:butt;stroke-linejoin:miter;stroke-miterlimit:4;stroke-dasharray:none;stroke-opacity:1"
       d="m 94.815783,189.23778 v -0.0246 l 0.007,-0.0113 0.0204,-0.01 0.0502,-0.002 h 0.47556 0.41055 l 0.0947,0.008 0.0669,0.006 0.0557,0.0151 0.0502,0.0226 0.039,0.0302 0.0242,0.0453 0.0204,0.0566 0.0111,0.0566 0.013,0.12821 -0.002,0.17344 -0.006,0.13951 -0.0186,0.0867 -0.0149,0.0472 -0.0353,0.0509 -0.0483,0.0415 -0.0465,0.0226 -0.0427,0.0151 -0.11332,0.004 -0.61118,0.004 -0.35667,-0.004 -0.0223,-0.008 -0.0186,-0.0189 -0.006,-0.049 z"
       id="path5510-2-6-2-7-5-0-9"
       inkscape:connector-curvature="0"
       inkscape:export-xdpi="100.38"
       inkscape:export-ydpi="100.38" /><path
       style="display:inline;fill:#0040dc;fill-opacity:1;fill-rule:evenodd;stroke:none;stroke-width:0.0127301;stroke-linecap:butt;stroke-linejoin:miter;stroke-miterlimit:4;stroke-dasharray:none;stroke-opacity:1"
       d="m 95.204083,193.44994 v -0.34346 l 0.014,-0.32539 0.0314,-0.37061 0.0279,-0.14459 0.0298,-0.15731 0.0542,-0.15024 0.0666,-0.14388 0.0961,-0.12458 0.10353,-0.11821 0.0986,-0.0798 0.14546,-0.0798 0.10294,-0.041 0.10459,-0.0236 0.17954,-0.0363 0.2022,-0.0212 0.26845,-0.025 0.10807,-0.002 0.55083,-0.0118 0.38698,-0.002 h 0.40267 l 0.17954,0.002 0.17954,0.0188 0.16734,0.0318 0.129,0.0452 0.13073,0.0678 0.1011,0.0655 0.0819,0.0702 0.0627,0.0655 0.0627,0.0994 0.0575,0.12198 0.0453,0.10621 0.0453,0.15589 0.0296,0.13564 0.0209,0.13117 0.0226,0.14694 0.009,0.1898 0.0105,0.20347 0.0157,0.41128 -0.002,0.42484 -0.002,0.39772 -0.0262,0.36608 -0.0366,0.27569 -0.0384,0.1898 -0.0627,0.23267 -0.0418,0.10385 -0.061,0.0925 -0.0575,0.0812 -0.11331,0.10856 -0.12551,0.0904 -0.14992,0.0678 -0.19523,0.0542 -0.19697,0.0339 -0.20569,0.0188 -0.53515,0.009 -0.58046,0.0118 -0.54386,0.005 -0.27192,-0.0141 -0.2301,-0.0318 -0.22138,-0.0812 -0.10285,-0.0746 -0.0854,-0.0589 -0.0993,-0.0994 -0.10807,-0.15354 -0.0854,-0.21029 -0.0523,-0.26438 -0.0366,-0.19664 -0.0226,-0.2689 -0.0192,-0.35479 c 0,0 -0.014,-0.33217 -0.014,-0.34348 0,-0.0118 -0.002,-0.28021 -0.002,-0.28021 z"
       id="path5518-7-7-8-8-2-9-2"
       inkscape:connector-curvature="0"
       inkscape:export-xdpi="100.38"
       inkscape:export-ydpi="100.38" /><path
       style="display:inline;fill:#0040dc;fill-opacity:1;fill-rule:evenodd;stroke:none;stroke-width:0.0127301;stroke-linecap:butt;stroke-linejoin:miter;stroke-miterlimit:4;stroke-dasharray:none;stroke-opacity:1"
       d="m 92.035063,193.47255 -0.4323,-0.84514 4.7e-4,-0.0266 0.005,-0.0212 0.0111,-0.0118 0.005,-0.005 0.0135,-0.0165 0.016,-0.0165 1.38543,-1.22077 0.0296,-0.0118 0.0394,-0.009 0.0222,-0.002 h 1.17588 l 0.0147,0.0118 0.0147,0.0118 0.005,0.0165 V 195.81 l -0.001,0.0165 -0.01,0.0141 -0.0142,0.005 -0.009,0.005 h -0.96881 l -0.0147,-0.007 -0.0135,-0.0212 -0.009,-0.0247 -0.002,-0.0212 v -3.28636 l -0.003,-0.0339 -0.0105,-0.0212 -0.0175,-0.009 -0.0209,0.002 -0.0262,0.025 -1.12781,1.03045 -0.0192,0.007 -0.0244,-0.009 z"
       id="path5514-0-8-7-4-5-2-2"
       inkscape:connector-curvature="0"
       inkscape:export-xdpi="100.38"
       inkscape:export-ydpi="100.38" /><path
       style="display:inline;fill:#013d60;fill-opacity:1;fill-rule:evenodd;stroke:none;stroke-width:0.0127301;stroke-linecap:butt;stroke-linejoin:miter;stroke-miterlimit:4;stroke-dasharray:none;stroke-opacity:1"
       d="m 96.253713,193.16644 c 0.01,-0.0188 0.0123,-0.20134 0.0123,-0.20134 l 0.0296,-0.14059 0.032,-0.11821 0.0296,-0.0575 0.0394,-0.0575 0.0567,-0.0511 0.0912,-0.0544 0.10845,-0.032 0.14299,-0.0188 0.16024,-0.0165 0.20215,-0.005 0.21446,-0.007 0.21448,-0.007 0.12818,0.005 0.18489,0.009 0.10106,0.0118 0.10354,0.0188 0.0887,0.0287 0.0592,0.0257 0.0542,0.0414 0.0493,0.0511 0.0468,0.0862 0.0345,0.11515 0.0247,0.17897 0.0123,0.29403 v 0.39946 l -0.002,0.30361 -0.0123,0.24286 -0.0147,0.10856 -0.0271,0.0798 -0.0394,0.0798 -0.0468,0.0638 -0.0616,0.0511 -0.0715,0.0384 -0.0863,0.0287 -0.0912,0.0235 -0.22187,0.0188 -0.29089,0.0165 -0.4388,-0.005 -0.2268,0.005 c 0,0 -0.10108,-0.009 -0.11586,-0.009 -0.0147,0 -0.12818,-0.0236 -0.12818,-0.0236 l -0.0789,-0.0384 -0.0666,-0.0575 -0.074,-0.0544 -0.0468,-0.0768 -0.0345,-0.12457 -0.0271,-0.12787 -0.0173,-0.24609 v -0.34515 z"
       id="path5516-9-7-3-5-4-5-8"
       inkscape:connector-curvature="0"
       inkscape:export-xdpi="29.591873"
       inkscape:export-ydpi="29.591873"
       inkscape:export-filename="pdp10logo.png" /><text
       xml:space="preserve"
       style="font-style:normal;font-variant:normal;font-weight:normal;font-stretch:normal;font-size:2.55764px;font-family:'Arial Black';-inkscape-font-specification:'Arial Black, ';fill:#ffffff;fill-opacity:1;stroke:none;stroke-width:0.264583;stroke-dasharray:none;stroke-opacity:1"
       x="91.708183"
       y="194.54347"
       id="text1333-6-0-7-4-9"><tspan
         sodipodi:role="line"
         id="tspan1331-1-3-44-0-7"
         style="fill:#ffffff;fill-opacity:1;stroke:none;stroke-width:0.264583;stroke-dasharray:none;stroke-opacity:1"
         x="91.708183"
         y="194.54347">SIMH</tspan></text></g></svg>
