<?xml version="1.0" encoding="UTF-8" standalone="no"?>
<!-- Created with Inkscape (http://www.inkscape.org/) -->

<svg
   width="32.000004"
   height="31.999973"
   viewBox="0 0 8.4666675 8.4666596"
   version="1.1"
   id="svg3463"
   inkscape:version="1.2.2 (b0a8486541, 2022-12-01)"
   sodipodi:docname="pdp10-icons.svg"
   xml:space="preserve"
   xmlns:inkscape="http://www.inkscape.org/namespaces/inkscape"
   xmlns:sodipodi="http://sodipodi.sourceforge.net/DTD/sodipodi-0.dtd"
   xmlns="http://www.w3.org/2000/svg"
   xmlns:svg="http://www.w3.org/2000/svg"><sodipodi:namedview
     id="namedview3465"
     pagecolor="#ffffff"
     bordercolor="#000000"
     borderopacity="0.25"
     inkscape:showpageshadow="2"
     inkscape:pageopacity="0.0"
     inkscape:pagecheckerboard="0"
     inkscape:deskcolor="#d1d1d1"
     inkscape:document-units="px"
     showgrid="true"
     inkscape:zoom="2.8079686"
     inkscape:cx="313.74995"
     inkscape:cy="643.34765"
     inkscape:window-width="1920"
     inkscape:window-height="1016"
     inkscape:window-x="0"
     inkscape:window-y="0"
     inkscape:window-maximized="1"
     inkscape:current-layer="layer1"><inkscape:grid
       type="xygrid"
       id="grid1129"
       empspacing="1"
       snapvisiblegridlinesonly="false" /></sodipodi:namedview><defs
     id="defs3460"><linearGradient
       id="linearGradient3216"
       inkscape:swatch="solid"><stop
         style="stop-color:#000000;stop-opacity:1;"
         offset="0"
         id="stop3214" /></linearGradient></defs><g
     inkscape:label="Layer 1"
     inkscape:groupmode="layer"
     id="layer1"
     transform="translate(-71.971772,-178.06206)"><rect
       style="display:inline;fill:#013d60;fill-opacity:1;stroke:none;stroke-width:0.00241585;stroke-miterlimit:4;stroke-dasharray:none;stroke-opacity:1"
       id="rect6242-6-36-9-2-74"
       width="8.4666662"
       height="8.4666662"
       x="71.971771"
       y="178.06206"
       ry="0.18205146"
       inkscape:export-xdpi="96"
       inkscape:export-ydpi="96"
       inkscape:export-filename="../../../../../icons-svg/vt52.svg" /><path
       inkscape:connector-curvature="0"
       id="path5441-3-9-0-9-18"
       d="m 72.245723,180.47085 c 0,-0.0213 0,-1.88772 0,-1.88772 l 1.690569,-0.009 0.103773,0.005 0.08538,0.0133 0.07225,0.02 0.06305,0.0293 0.04466,0.0293 0.03809,0.036 0.03153,0.0347 0.02627,0.0373 0.01839,0.032 0.01708,0.0413 0.0197,0.0627 0.01314,0.0493 0.01182,0.0693 0.0066,0.0653 0.0079,0.1 0.0026,0.0547 -0.0026,0.0746 -0.0039,0.0787 -0.0079,0.0973 -0.01313,0.0946 -0.01839,0.0693 -0.03284,0.0813 -0.02627,0.04 -0.05517,0.0653 -0.04335,0.036 -0.04335,0.028 -0.06962,0.0307 -0.08013,0.0213 -0.07619,0.012 -0.09064,0.0107 -0.0972,0.004 -0.972045,0.001 -0.01894,8.6e-4 -0.01393,0.002 -0.007,0.006 -0.0042,0.009 -0.0014,0.025 0.0033,0.39686 -0.0037,0.016 -0.0084,0.0132 -0.01765,0.002 -0.04458,0.002 -0.404045,0.003 -0.09103,9.4e-4 z"
       style="fill:#0040dc;fill-opacity:1;fill-rule:evenodd;stroke:none;stroke-width:0.00600182;stroke-linecap:butt;stroke-linejoin:miter;stroke-miterlimit:4;stroke-dasharray:none;stroke-opacity:1" /><path
       inkscape:connector-curvature="0"
       id="path5443-5-3-2-3-59"
       d="m 72.828209,179.08725 0.0074,-0.0189 0.01672,-0.0113 0.02229,-0.007 0.846215,-0.001 0.05123,0.001 0.05254,0.0133 0.03021,0.0173 0.02102,0.0187 0.01839,0.024 0.01576,0.0427 0.01051,0.0387 v 0.052 l -0.0013,0.048 -0.0013,0.0533 -0.0066,0.0467 -0.01576,0.0307 -0.02496,0.0347 -0.03547,0.0227 -0.05123,0.02 -0.0486,0.005 -0.876154,0.004 -0.01839,-0.003 -0.01445,-0.0147 v -0.084 z"
       style="fill:#013d60;fill-opacity:1;fill-rule:evenodd;stroke:none;stroke-width:0.00600182;stroke-linecap:butt;stroke-linejoin:miter;stroke-miterlimit:4;stroke-dasharray:none;stroke-opacity:1" /><path
       inkscape:connector-curvature="0"
       id="path5441-2-2-0-7-1-7"
       d="m 77.866319,180.47076 c 0,-0.0213 0,-1.88772 0,-1.88772 l 1.690569,-0.009 0.103773,0.005 0.08538,0.0133 0.07225,0.02 0.06305,0.0293 0.04466,0.0293 0.03809,0.036 0.03153,0.0347 0.02627,0.0373 0.01839,0.032 0.01708,0.0413 0.0197,0.0627 0.01314,0.0493 0.01182,0.0693 0.0066,0.0653 0.0079,0.1 0.0026,0.0547 -0.0026,0.0747 -0.0039,0.0786 -0.0079,0.0973 -0.01314,0.0947 -0.01839,0.0693 -0.03284,0.0813 -0.02627,0.04 -0.05517,0.0653 -0.04335,0.036 -0.04335,0.028 -0.06962,0.0307 -0.08013,0.0213 -0.07619,0.012 -0.09064,0.0107 -0.0972,0.004 -0.972045,10e-4 -0.01894,8.5e-4 -0.01393,0.002 -0.007,0.006 -0.0042,0.009 -0.0014,0.025 0.0033,0.39686 -0.0037,0.016 -0.0084,0.0132 -0.01765,0.002 -0.04458,0.002 -0.404045,0.003 -0.09103,9.4e-4 z"
       style="fill:#0040dc;fill-opacity:1;fill-rule:evenodd;stroke:none;stroke-width:0.00600182;stroke-linecap:butt;stroke-linejoin:miter;stroke-miterlimit:4;stroke-dasharray:none;stroke-opacity:1" /><path
       inkscape:connector-curvature="0"
       id="path5443-9-9-6-5-9-5"
       d="m 78.448805,179.08717 0.0074,-0.0189 0.01672,-0.0113 0.02229,-0.008 0.846215,-0.001 0.05123,0.001 0.05254,0.0133 0.03021,0.0173 0.02102,0.0187 0.01839,0.024 0.01576,0.0427 0.01051,0.0387 v 0.052 l -0.0013,0.048 -0.0013,0.0533 -0.0066,0.0467 -0.01576,0.0307 -0.02496,0.0347 -0.03547,0.0227 -0.05123,0.02 -0.0486,0.005 -0.876154,0.004 -0.01839,-0.003 -0.01445,-0.0147 v -0.084 z"
       style="fill:#013d60;fill-opacity:1;fill-rule:evenodd;stroke:none;stroke-width:0.00600182;stroke-linecap:butt;stroke-linejoin:miter;stroke-miterlimit:4;stroke-dasharray:none;stroke-opacity:1" /><path
       style="display:inline;fill:#0040dc;fill-opacity:1;fill-rule:evenodd;stroke:none;stroke-width:0.00600182;stroke-linecap:butt;stroke-linejoin:miter;stroke-miterlimit:4;stroke-dasharray:none;stroke-opacity:1"
       d="m 74.886008,178.65508 v -0.0826 l 0.0079,-0.0134 0.02103,-0.0107 h 0.03152 1.73392 l 0.08669,0.003 0.08932,0.005 0.06568,0.016 0.07094,0.0187 0.06568,0.032 0.04729,0.0213 0.04729,0.0347 0.03678,0.036 0.03152,0.0373 0.03021,0.04 0.02889,0.0507 0.02758,0.0706 0.02365,0.0907 0.02103,0.10798 0.01051,0.092 0.0039,0.10532 0.0052,0.13864 -0.0027,0.15732 -0.0052,0.13198 -0.0039,0.0853 -0.01183,0.11733 -0.01838,0.0919 -0.03021,0.1 -0.03941,0.0706 -0.05123,0.0613 -0.0578,0.056 -0.07487,0.04 -0.09063,0.0387 -0.07881,0.0227 -0.0775,0.016 -0.07488,0.005 h -1.828494 l -0.01969,-0.003 -0.0079,-0.008 -0.0039,-0.0187 -0.0039,-0.0266 -0.0027,-0.028 z"
       id="path5508-1-2-9-4-3"
       inkscape:connector-curvature="0"
       inkscape:export-xdpi="100.38"
       inkscape:export-ydpi="100.38" /><path
       style="display:inline;fill:#013d60;fill-opacity:1;fill-rule:evenodd;stroke:none;stroke-width:0.00600182;stroke-linecap:butt;stroke-linejoin:miter;stroke-miterlimit:4;stroke-dasharray:none;stroke-opacity:1"
       d="m 75.45496,179.06837 v -0.0246 l 0.0075,-0.0113 0.02043,-0.01 0.05016,-0.002 h 0.475563 0.410546 l 0.09474,0.008 0.06688,0.006 0.05573,0.0151 0.05016,0.0226 0.03901,0.0302 0.02416,0.0453 0.02043,0.0566 0.01114,0.0566 0.01299,0.12821 -0.0018,0.17344 -0.0056,0.13951 -0.01859,0.0867 -0.01486,0.0472 -0.0353,0.0509 -0.0483,0.0415 -0.04645,0.0226 -0.04272,0.0151 -0.113318,0.004 -0.611175,0.004 -0.356674,-0.004 -0.02228,-0.008 -0.01859,-0.0189 -0.0056,-0.049 z"
       id="path5510-2-6-2-7-8"
       inkscape:connector-curvature="0"
       inkscape:export-xdpi="100.38"
       inkscape:export-ydpi="100.38" /><path
       style="display:inline;fill:#0040dc;fill-opacity:1;fill-rule:evenodd;stroke:none;stroke-width:0.0127301;stroke-linecap:butt;stroke-linejoin:miter;stroke-miterlimit:4;stroke-dasharray:none;stroke-opacity:1"
       d="m 75.843258,183.28053 v -0.34346 l 0.01401,-0.32539 0.03136,-0.37061 0.02789,-0.14459 0.02979,-0.15731 0.05422,-0.15024 0.06655,-0.14388 0.09614,-0.12458 0.103534,-0.11821 0.09859,-0.0798 0.145457,-0.0798 0.102944,-0.041 0.104585,-0.0236 0.179544,-0.0363 0.202202,-0.0212 0.268447,-0.025 0.108069,-0.002 0.550836,-0.0118 0.38697,-0.002 h 0.402671 l 0.179544,0.002 0.179544,0.0188 0.16734,0.0318 0.128994,0.0452 0.130727,0.0678 0.101101,0.0655 0.08193,0.0702 0.06275,0.0655 0.06275,0.0994 0.05752,0.12198 0.04533,0.10621 0.04533,0.15589 0.02963,0.13564 0.02091,0.13117 0.02264,0.14694 0.0087,0.1898 0.01051,0.20347 0.01567,0.41128 -0.0017,0.42484 -0.0017,0.39772 -0.02616,0.36608 -0.03661,0.27569 -0.03835,0.1898 -0.06275,0.23267 -0.04181,0.10385 -0.061,0.0925 -0.05752,0.0812 -0.113305,0.10856 -0.12551,0.0904 -0.149918,0.0678 -0.19523,0.0542 -0.196973,0.0339 -0.205695,0.0188 -0.535143,0.009 -0.580464,0.0118 -0.543863,0.005 -0.271918,-0.0141 -0.230096,-0.0318 -0.221377,-0.0812 -0.102852,-0.0746 -0.08541,-0.0589 -0.09935,-0.0994 -0.108069,-0.15354 -0.08541,-0.21029 -0.05226,-0.26438 -0.03661,-0.19664 -0.02264,-0.2689 -0.01917,-0.35479 c 0,0 -0.01401,-0.33217 -0.01401,-0.34348 0,-0.0118 -0.0017,-0.28021 -0.0017,-0.28021 z"
       id="path5518-7-7-8-8-8"
       inkscape:connector-curvature="0"
       inkscape:export-xdpi="100.38"
       inkscape:export-ydpi="100.38" /><path
       style="display:inline;fill:#0040dc;fill-opacity:1;fill-rule:evenodd;stroke:none;stroke-width:0.0127301;stroke-linecap:butt;stroke-linejoin:miter;stroke-miterlimit:4;stroke-dasharray:none;stroke-opacity:1"
       d="m 72.674241,183.30314 -0.432304,-0.84514 4.76e-4,-0.0266 0.005,-0.0212 0.01106,-0.0118 0.005,-0.005 0.01346,-0.0165 0.01604,-0.0165 1.385426,-1.22077 0.02957,-0.0118 0.03942,-0.009 0.0222,-0.002 h 1.17588 l 0.01475,0.0118 0.01475,0.0118 0.005,0.0165 v 4.48366 l -0.0011,0.0165 -0.0098,0.0141 -0.0142,0.005 -0.0092,0.005 H 73.97686 l -0.01475,-0.007 -0.01346,-0.0212 -0.0087,-0.0247 -0.0022,-0.0212 v -3.28636 l -0.0028,-0.0339 -0.01051,-0.0212 -0.01751,-0.009 -0.02091,0.002 -0.02616,0.025 -1.127809,1.03045 -0.01917,0.007 -0.02443,-0.009 z"
       id="path5514-0-8-7-4-3"
       inkscape:connector-curvature="0"
       inkscape:export-xdpi="100.38"
       inkscape:export-ydpi="100.38" /><path
       style="display:inline;fill:#013d60;fill-opacity:1;fill-rule:evenodd;stroke:none;stroke-width:0.0127301;stroke-linecap:butt;stroke-linejoin:miter;stroke-miterlimit:4;stroke-dasharray:none;stroke-opacity:1"
       d="m 76.892888,182.99703 c 0.0098,-0.0188 0.01235,-0.20134 0.01235,-0.20134 l 0.02957,-0.14059 0.03202,-0.11821 0.02957,-0.0575 0.03942,-0.0575 0.05671,-0.0511 0.09122,-0.0544 0.108457,-0.032 0.142986,-0.0188 0.160243,-0.0165 0.202146,-0.005 0.214465,-0.007 0.214472,-0.007 0.128183,0.005 0.184889,0.009 0.101064,0.0118 0.103534,0.0188 0.08875,0.0287 0.05916,0.0257 0.05422,0.0414 0.04931,0.0511 0.04685,0.0862 0.03449,0.11515 0.02465,0.17897 0.01235,0.29403 v 0.39946 l -0.0022,0.30361 -0.01235,0.24286 -0.01475,0.10856 -0.02712,0.0798 -0.03942,0.0798 -0.04684,0.0638 -0.06163,0.0511 -0.07149,0.0384 -0.08628,0.0287 -0.09122,0.0235 -0.221867,0.0188 -0.290892,0.0165 -0.438799,-0.005 -0.226793,0.005 c 0,0 -0.101082,-0.009 -0.115867,-0.009 -0.01475,0 -0.128183,-0.0236 -0.128183,-0.0236 l -0.07889,-0.0384 -0.06657,-0.0575 -0.07396,-0.0544 -0.04685,-0.0768 -0.03449,-0.12457 -0.02712,-0.12787 -0.01733,-0.24609 v -0.34515 z"
       id="path5516-9-7-3-5-1"
       inkscape:connector-curvature="0"
       inkscape:export-xdpi="29.591873"
       inkscape:export-ydpi="29.591873"
       inkscape:export-filename="pdp10logo.png" /><text
       xml:space="preserve"
       style="font-style:normal;font-variant:normal;font-weight:normal;font-stretch:normal;font-size:2.55764px;font-family:'Arial Black';-inkscape-font-specification:'Arial Black, ';fill:#ffffff;fill-opacity:1;stroke:none;stroke-width:0.264583;stroke-dasharray:none;stroke-opacity:1"
       x="72.523994"
       y="184.37405"
       id="text1333-6-0-8"><tspan
         sodipodi:role="line"
         id="tspan1331-1-3-9"
         style="fill:#ffffff;fill-opacity:1;stroke:none;stroke-width:0.264583;stroke-dasharray:none;stroke-opacity:1"
         x="72.523994"
         y="184.37405">VT52</tspan></text></g></svg>
